<?xml version="1.0" standalone="no"?>
<!DOCTYPE svg PUBLIC "-//W3C//DTD SVG 20010904//EN"
 "http://www.w3.org/TR/2001/REC-SVG-20010904/DTD/svg10.dtd">
<svg version="1.0" xmlns="http://www.w3.org/2000/svg"
 width="512.000000pt" height="512.000000pt" viewBox="0 0 512.000000 512.000000"
 preserveAspectRatio="xMidYMid meet">

<g transform="translate(0.000000,512.000000) scale(0.100000,-0.100000)"
fill="#FFFFFF" stroke="none">
<path d="M2405 5104 c-149 -33 -304 -133 -400 -258 -100 -130 -142 -266 -152
-483 l-6 -143 -462 0 -462 0 -21 -23 c-20 -21 -42 -179 -282 -2049 -143 -1114
-260 -2043 -260 -2064 0 -45 6 -56 37 -73 16 -8 569 -11 2163 -11 1594 0 2147
3 2163 11 31 17 37 28 37 73 0 21 -117 950 -260 2064 -240 1870 -262 2028
-282 2049 l-21 23 -477 0 -477 0 -6 158 c-5 171 -21 240 -80 357 -84 168 -239
300 -419 356 -86 27 -242 33 -333 13z m270 -149 c192 -50 353 -219 400 -417 9
-38 15 -114 15 -190 l0 -128 -545 0 -545 0 0 109 c0 122 18 232 50 305 48 113
151 225 254 279 106 54 256 71 371 42z m-825 -974 l0 -89 -30 -12 c-66 -28
-120 -120 -120 -206 0 -44 31 -117 63 -153 30 -33 115 -71 158 -71 87 0 176
56 213 135 26 53 24 140 -2 191 -22 43 -96 114 -119 114 -10 0 -13 22 -13 90
l0 90 545 0 545 0 0 -89 0 -89 -30 -12 c-36 -15 -87 -71 -106 -116 -31 -74
-11 -179 44 -238 35 -37 117 -76 161 -76 85 0 177 58 212 134 23 50 24 134 3
184 -18 45 -67 97 -105 113 -29 11 -29 12 -29 100 l0 89 432 -2 433 -3 247
-1920 c135 -1056 248 -1937 251 -1957 l5 -38 -2049 0 -2049 0 5 23 c2 12 115
888 250 1947 136 1059 248 1931 250 1938 3 9 96 12 420 12 l415 0 0 -89z m114
-232 c29 -14 51 -59 41 -89 -10 -32 -46 -60 -76 -60 -71 0 -105 85 -54 135 26
27 51 31 89 14z m1244 -5 c64 -44 36 -143 -39 -144 -73 -1 -109 95 -53 139 32
25 62 27 92 5z"/>
</g>
</svg>
